# This file uses centimeters as units for non-parametric coordinates.

mtllib red_bush.mtl
g default
v -0.634094 -0.000000 -0.009097
v -0.265941 -0.000000 0.329227
v 0.102212 -0.000000 0.667551
v -0.295770 0.000000 -0.377250
v 0.072383 0.254018 -0.038926
v 0.440536 0.000000 0.299398
v 0.042554 0.000000 -0.745403
v 0.410707 0.000000 -0.407079
v 0.778860 0.000000 -0.068755
v -0.859308 -0.000000 -0.047807
v -0.359308 -0.000000 -0.047807
v 0.140692 -0.000000 -0.047807
v -0.859308 0.000000 -0.547807
v -0.359308 0.254018 -0.547807
v 0.140692 0.000000 -0.547807
v -0.859308 0.000000 -1.047807
v -0.359308 0.000000 -1.047807
v 0.140692 0.000000 -1.047807
v -0.553647 -0.000000 -0.517978
v -0.185494 -0.000000 -0.179654
v 0.182660 -0.000000 0.158670
v -0.215323 0.000000 -0.886131
v 0.152830 0.254018 -0.547807
v 0.520984 0.000000 -0.209483
v 0.123001 0.000000 -1.254285
v 0.491154 0.000000 -0.915961
v 0.859307 0.000000 -0.577637
vt 0.000000 0.000000
vt 0.500000 0.000000
vt 1.000000 0.000000
vt 0.000000 0.500000
vt 0.500000 0.500000
vt 1.000000 0.500000
vt 0.000000 1.000000
vt 0.500000 1.000000
vt 1.000000 1.000000
vt 0.000000 0.000000
vt 0.500000 0.000000
vt 0.500000 0.500000
vt 0.000000 0.500000
vt 1.000000 0.000000
vt 1.000000 0.500000
vt 0.500000 1.000000
vt 0.000000 1.000000
vt 1.000000 1.000000
vt 0.000000 0.000000
vt 0.500000 0.000000
vt 0.500000 0.500000
vt 0.000000 0.500000
vt 1.000000 0.000000
vt 1.000000 0.500000
vt 0.500000 1.000000
vt 0.000000 1.000000
vt 1.000000 1.000000
vn -0.337782 0.941116 0.014262
vn -0.166590 0.969219 0.181278
vn -0.000000 1.000000 -0.000000
vn -0.181278 0.969219 -0.166590
vn 0.014262 0.941116 0.337782
vn 0.181278 0.969219 0.166590
vn 0.166590 0.969219 -0.181278
vn -0.014262 0.941116 -0.337782
vn 0.337782 0.941116 -0.014262
vn -0.239061 0.941116 0.239061
vn 0.000000 0.969219 0.246199
vn 0.000000 1.000000 0.000000
vn -0.246199 0.969219 0.000000
vn 0.239061 0.941116 0.239061
vn 0.246199 0.969219 0.000000
vn 0.000000 0.969219 -0.246199
vn -0.239061 0.941116 -0.239061
vn 0.239061 0.941116 -0.239061
vn -0.337782 0.941116 0.014262
vn -0.166590 0.969219 0.181278
vn 0.000000 1.000000 -0.000000
vn -0.181278 0.969219 -0.166590
vn 0.014262 0.941116 0.337782
vn 0.181278 0.969219 0.166590
vn 0.166590 0.969219 -0.181278
vn -0.014262 0.941116 -0.337782
vn 0.337782 0.941116 -0.014262
s 1
g pPlane124
usemtl lambert10SG
f 1/1/1 2/2/2 5/5/3 4/4/4
f 2/2/2 3/3/5 6/6/6 5/5/3
f 4/4/4 5/5/3 8/8/7 7/7/8
f 5/5/3 6/6/6 9/9/9 8/8/7
s 2
f 10/10/10 11/11/11 14/12/12 13/13/13
f 11/11/11 12/14/14 15/15/15 14/12/12
f 13/13/13 14/12/12 17/16/16 16/17/17
f 14/12/12 15/15/15 18/18/18 17/16/16
s 3
f 19/19/19 20/20/20 23/21/21 22/22/22
f 20/20/20 21/23/23 24/24/24 23/21/21
f 22/22/22 23/21/21 26/25/25 25/26/26
f 23/21/21 24/24/24 27/27/27 26/25/25
