# This file uses centimeters as units for non-parametric coordinates.

mtllib orange_bush.mtl
g default
v -0.554721 -0.000000 0.203510
v -0.054721 -0.000000 0.203510
v 0.445279 -0.000000 0.203510
v -0.554721 0.000000 -0.296490
v -0.054721 0.241600 -0.296490
v 0.445279 0.000000 -0.296490
v -0.554721 0.000000 -0.796490
v -0.054721 0.000000 -0.796490
v 0.445279 0.000000 -0.796490
v -0.329374 -0.000000 0.281427
v -0.000934 -0.000000 0.539545
v 0.327507 -0.000000 0.797664
v -0.071256 0.000000 -0.047013
v 0.257185 0.201847 0.211105
v 0.585625 0.000000 0.469223
v 0.186863 0.000000 -0.375454
v 0.515303 0.000000 -0.117335
v 0.843744 0.000000 0.140783
v -0.843744 -0.083055 0.181471
v -0.515303 -0.083055 0.439589
v -0.186863 -0.083055 0.697708
v -0.585625 -0.083055 -0.146969
v -0.257185 0.118792 0.111149
v 0.071255 -0.083055 0.369267
v -0.327507 -0.083055 -0.475410
v 0.000933 -0.083055 -0.217291
v 0.329374 -0.083055 0.040827
vt 0.000000 0.000000
vt 0.500000 0.000000
vt 1.000000 0.000000
vt 0.000000 0.500000
vt 0.500000 0.500000
vt 1.000000 0.500000
vt 0.000000 1.000000
vt 0.500000 1.000000
vt 1.000000 1.000000
vt 0.000000 0.000000
vt 0.500000 0.000000
vt 0.500000 0.500000
vt 0.000000 0.500000
vt 1.000000 0.000000
vt 1.000000 0.500000
vt 0.500000 1.000000
vt 0.000000 1.000000
vt 1.000000 1.000000
vt 0.000000 0.000000
vt 0.500000 0.000000
vt 0.500000 0.500000
vt 0.000000 0.500000
vt 1.000000 0.000000
vt 1.000000 0.500000
vt 0.500000 1.000000
vt 0.000000 1.000000
vt 1.000000 1.000000
vn -0.228623 0.946289 0.228623
vn 0.000000 0.972033 0.234843
vn -0.000000 1.000000 0.000000
vn -0.234843 0.972033 0.000000
vn 0.228623 0.946289 0.228623
vn 0.234843 0.972033 0.000000
vn 0.000000 0.972033 -0.234843
vn -0.228623 0.946289 -0.228623
vn 0.228623 0.946289 -0.228623
vn -0.321023 0.946289 0.038487
vn -0.145111 0.972033 0.184646
vn -0.000000 1.000000 0.000000
vn -0.184646 0.972033 -0.145111
vn 0.038487 0.946289 0.321023
vn 0.184645 0.972033 0.145111
vn 0.145111 0.972033 -0.184646
vn -0.038487 0.946289 -0.321023
vn 0.321023 0.946289 -0.038487
vn -0.321023 0.946289 0.038487
vn -0.145111 0.972033 0.184645
vn 0.000000 1.000000 0.000000
vn -0.184646 0.972033 -0.145111
vn 0.038487 0.946289 0.321023
vn 0.184645 0.972033 0.145111
vn 0.145111 0.972033 -0.184645
vn -0.038487 0.946289 -0.321023
vn 0.321023 0.946289 -0.038487
s 1
g pPlane118
usemtl lambert8SG
f 1/1/1 2/2/2 5/5/3 4/4/4
f 2/2/2 3/3/5 6/6/6 5/5/3
f 4/4/4 5/5/3 8/8/7 7/7/8
f 5/5/3 6/6/6 9/9/9 8/8/7
s 2
f 10/10/10 11/11/11 14/12/12 13/13/13
f 11/11/11 12/14/14 15/15/15 14/12/12
f 13/13/13 14/12/12 17/16/16 16/17/17
f 14/12/12 15/15/15 18/18/18 17/16/16
s 3
f 19/19/19 20/20/20 23/21/21 22/22/22
f 20/20/20 21/23/23 24/24/24 23/21/21
f 22/22/22 23/21/21 26/25/25 25/26/26
f 23/21/21 24/24/24 27/27/27 26/25/25
