# This file uses centimeters as units for non-parametric coordinates.

mtllib green_bush.mtl
g default
v -0.167229 -0.037370 0.743646
v 0.224469 -0.038002 0.648466
v 0.532171 -0.038002 0.483809
v -0.329185 -0.038002 0.414625
v 0.064563 0.108841 0.254718
v 0.458311 -0.038002 0.094812
v -0.457976 -0.038002 0.050587
v -0.095343 -0.038002 -0.139029
v 0.269230 -0.038002 -0.268521
v -0.691135 0.000742 0.238539
v -0.222024 -0.000000 0.308188
v 0.186285 -0.000000 0.264918
v -0.722024 0.000000 -0.191812
v -0.222024 0.172764 -0.191812
v 0.277976 0.000000 -0.191812
v -0.701258 0.000000 -0.645651
v -0.222024 0.000000 -0.691812
v 0.232710 0.000000 -0.671573
v -0.180068 -0.008192 -0.117962
v 0.099729 -0.008718 0.068221
v 0.374602 -0.008718 0.163653
v -0.070046 -0.008718 -0.403234
v 0.250569 0.113711 -0.252394
v 0.571183 -0.008718 -0.101554
v 0.080184 -0.008718 -0.687985
v 0.401409 -0.008718 -0.573009
v 0.686892 -0.008718 -0.422847
vt 0.000000 0.000000
vt 0.500000 0.000000
vt 1.000000 0.000000
vt 0.000000 0.500000
vt 0.500000 0.500000
vt 1.000000 0.500000
vt 0.000000 1.000000
vt 0.500000 1.000000
vt 1.000000 1.000000
vt 0.000000 0.000000
vt 0.500000 0.000000
vt 0.500000 0.500000
vt 0.000000 0.500000
vt 1.000000 0.000000
vt 1.000000 0.500000
vt 0.500000 1.000000
vt 0.000000 1.000000
vt 1.000000 1.000000
vt 0.000000 0.000000
vt 0.500000 0.000000
vt 0.500000 0.500000
vt 0.000000 0.500000
vt 1.000000 0.000000
vt 1.000000 0.500000
vt 0.500000 1.000000
vt 0.000000 1.000000
vt 1.000000 1.000000
vn -0.101584 0.965315 0.240514
vn 0.075012 0.981424 0.176581
vn 0.000112 1.000000 -0.000266
vn -0.172017 0.982760 0.067778
vn 0.250393 0.962351 0.105756
vn 0.172053 0.982086 -0.076840
vn -0.065724 0.983308 -0.169663
vn -0.233350 0.967385 -0.098558
vn 0.098418 0.967480 -0.233018
vn -0.184616 0.965315 0.184616
vn 0.003057 0.981424 0.191829
vn 0.000204 1.000000 -0.000204
vn -0.184878 0.982760 -0.001927
vn 0.192199 0.962351 0.192199
vn 0.188321 0.982086 -0.006455
vn 0.002945 0.983308 -0.181924
vn -0.179117 0.967385 -0.179117
vn 0.178862 0.967480 -0.178862
vn -0.245645 0.965315 0.088459
vn -0.078897 0.981424 0.174880
vn 0.000272 1.000000 -0.000098
vn -0.166468 0.982760 -0.080449
vn 0.092092 0.962351 0.255735
vn 0.173152 0.982086 0.074329
vn 0.080112 0.983308 -0.163362
vn -0.085824 0.967385 -0.238328
vn 0.237988 0.967480 -0.085701
s 1
g pPlane119
usemtl lambert2SG
f 1/1/1 2/2/2 5/5/3 4/4/4
f 2/2/2 3/3/5 6/6/6 5/5/3
f 4/4/4 5/5/3 8/8/7 7/7/8
f 5/5/3 6/6/6 9/9/9 8/8/7
s 2
f 10/10/10 11/11/11 14/12/12 13/13/13
f 11/11/11 12/14/14 15/15/15 14/12/12
f 13/13/13 14/12/12 17/16/16 16/17/17
f 14/12/12 15/15/15 18/18/18 17/16/16
s 3
f 19/19/19 20/20/20 23/21/21 22/22/22
f 20/20/20 21/23/23 24/24/24 23/21/21
f 22/22/22 23/21/21 26/25/25 25/26/26
f 23/21/21 24/24/24 27/27/27 26/25/25
